<svg width="56" height="56" viewBox="0 0 56 56" fill="none" xmlns="http://www.w3.org/2000/svg">
<g clip-path="url(#clip0_0_1024)">
<path d="M43.75 40.25V8.75C43.75 6.89348 43.0125 5.11301 41.6997 3.80025C40.387 2.4875 38.6065 1.75 36.75 1.75H8.04999C11.9 1.75 14 4.9 14 8.75V47.25C14 49.1065 14.7375 50.887 16.0502 52.1997C17.363 53.5125 19.1435 54.25 21 54.25" stroke="#302A63" stroke-width="2" stroke-linecap="round" stroke-linejoin="round"/>
<path d="M8.05 1.75C4.2 1.75 1.75 4.9 1.75 8.75H14M47.25 40.25H21C22.8565 40.25 24.637 40.9875 25.9497 42.3003C27.2625 43.613 28 45.3935 28 47.25C28 49.1065 27.2625 50.887 25.9497 52.1997C24.637 53.5125 22.8565 54.25 21 54.25H47.25C49.1065 54.25 50.887 53.5125 52.1997 52.1997C53.5125 50.887 54.25 49.1065 54.25 47.25C54.25 45.3935 53.5125 43.613 52.1997 42.3003C50.887 40.9875 49.1065 40.25 47.25 40.25Z" stroke="#302A63" stroke-width="2" stroke-linecap="round" stroke-linejoin="round"/>
<path d="M22.75 29.75H35M22.75 12.25H35H22.75ZM22.75 21H35H22.75Z" stroke="#5649CF" stroke-width="2" stroke-linecap="round" stroke-linejoin="round"/>
</g>
<defs>
<clipPath id="clip0_0_1024">
<rect width="56" height="56" fill="white"/>
</clipPath>
</defs>
</svg>
