<svg width="64" height="64" viewBox="0 0 64 64" fill="none" xmlns="http://www.w3.org/2000/svg">
<path d="M58 43C57.7904 43.8894 57.2751 44.677 56.544 45.2253C55.8129 45.7736 54.9126 46.0478 54 46H25C24.2044 46 23.4413 45.6839 22.8787 45.1213C22.3161 44.5587 22 43.7956 22 43L26 21C26.2096 20.1105 26.7249 19.3229 27.456 18.7746C28.1871 18.2263 29.0874 17.9522 30 18H59C59.7956 18 60.5587 18.316 61.1213 18.8787C61.6839 19.4413 62 20.2043 62 21L58 43Z" stroke="#202020" stroke-width="2" stroke-miterlimit="10" stroke-linecap="round" stroke-linejoin="round"/>
<path d="M10 38H14M2 22H18H2ZM6 30H16H6Z" stroke="#5649CF" stroke-width="2" stroke-miterlimit="10" stroke-linecap="round" stroke-linejoin="round"/>
</svg>
