<svg width="59" height="59" viewBox="0 0 59 59" fill="none" xmlns="http://www.w3.org/2000/svg">
<path d="M36.875 57.1562H49.7812V31.341H56.5856C56.6316 31.3411 56.6765 31.3274 56.7147 31.3017C56.7528 31.2761 56.7824 31.2396 56.7997 31.197C56.8169 31.1543 56.821 31.1075 56.8115 31.0626C56.8019 31.0176 56.7791 30.9765 56.746 30.9446L49.7812 24.2149V11.0625H41.4843V16.1946L29.5 4.60938L2.25303 30.9473C2.21992 30.9793 2.19711 31.0203 2.18754 31.0653C2.17797 31.1103 2.18207 31.1571 2.19932 31.1997C2.21657 31.2424 2.24618 31.2788 2.28433 31.3045C2.32249 31.3302 2.36745 31.3438 2.41343 31.3438H9.21871V57.1562H22.125" stroke="#202020" stroke-width="2" stroke-miterlimit="10" stroke-linecap="round" stroke-linejoin="round"/>
<path d="M36.875 53.4688V39.6406H22.125V53.4688" stroke="#5649CF" stroke-width="2" stroke-miterlimit="10" stroke-linecap="round" stroke-linejoin="round"/>
</svg>
