<svg width="11" height="11" viewBox="0 0 11 11" fill="none" xmlns="http://www.w3.org/2000/svg">
<path d="M9.18201 0.656494H1.87401C1.20228 0.656494 0.656006 1.20277 0.656006 1.87449V9.18249C0.656006 9.85422 1.20228 10.4005 1.87401 10.4005H9.18201C9.85373 10.4005 10.4 9.85422 10.4 9.18249V1.87449C10.4 1.20277 9.85373 0.656494 9.18201 0.656494Z" fill="white"/>
<path fill-rule="evenodd" clip-rule="evenodd" d="M8.8778 5.52962H7.3553V4.31162C7.3553 3.97545 7.62813 4.00712 7.9643 4.00712H8.5733V2.48462H7.3553C6.87075 2.48462 6.40605 2.67711 6.06342 3.01974C5.72079 3.36236 5.5283 3.82707 5.5283 4.31162V5.52962H4.3103V7.05212H5.5283V10.4016H7.3553V7.05212H8.2688L8.8778 5.52962Z" fill="#3CB265"/>
</svg>
