<svg width="12" height="13" viewBox="0 0 12 13" fill="none" xmlns="http://www.w3.org/2000/svg">
<path fill-rule="evenodd" clip-rule="evenodd" d="M11.8137 12.0974H9.35243V8.18256C9.35243 7.15805 8.96773 6.45843 8.12088 6.45843C7.47348 6.45843 7.11333 6.9306 6.94578 7.38551C6.88276 7.54865 6.89264 7.7761 6.89264 8.00356V12.0974H4.45436C4.45436 12.0974 4.48574 5.16276 4.45436 4.53246H6.89264V5.71984C7.0369 5.20063 7.81592 4.4598 9.0591 4.4598C10.6017 4.4598 11.8137 5.54779 11.8137 7.89108V12.0974ZM1.98874 3.58618H1.9728C1.18721 3.58618 0.677734 3.00794 0.677734 2.27491C0.677734 1.52769 1.20214 0.961426 2.00368 0.961426C2.80446 0.961426 3.29697 1.5263 3.3124 2.27269C3.3124 3.00571 2.80446 3.58618 1.98874 3.58618ZM0.958662 4.53246H3.12917V12.0974H0.958662V4.53246Z" fill="#3CB265"/>
</svg>
