<svg width="12" height="11" viewBox="0 0 12 11" fill="none" xmlns="http://www.w3.org/2000/svg">
<path d="M11.4551 1.81041C11.0362 2.00716 10.5932 2.13793 10.1396 2.19869C10.6176 1.89331 10.9749 1.40975 11.1439 0.839626C10.6965 1.12537 10.207 1.32661 9.69663 1.43466C9.38361 1.07451 8.9772 0.824108 8.53025 0.716005C8.0833 0.607903 7.61649 0.647102 7.19051 0.828506C6.76452 1.00991 6.39907 1.32513 6.14168 1.73318C5.88428 2.14122 5.74684 2.62322 5.74722 3.11651C5.74547 3.30474 5.76322 3.4926 5.80014 3.6766C4.89191 3.62865 4.00331 3.37482 3.19242 2.93172C2.38153 2.48861 1.66661 1.8662 1.09441 1.10518C0.800637 1.64599 0.709599 2.28713 0.839879 2.89776C0.970158 3.50838 1.31193 4.04245 1.79544 4.39095C1.43422 4.38044 1.08063 4.27659 0.764473 4.08814V4.11493C0.765067 4.68264 0.947273 5.23281 1.28042 5.67281C1.61357 6.11281 2.07732 6.41579 2.5936 6.53073C2.39828 6.58617 2.19699 6.6134 1.99501 6.6117C1.84998 6.61446 1.70509 6.60038 1.56286 6.5697C1.71041 7.05761 1.99478 7.48428 2.37681 7.79097C2.75885 8.09765 3.21978 8.26928 3.69614 8.28223C2.88804 8.96275 1.89143 9.33195 0.865557 9.33081C0.682918 9.33211 0.500389 9.3208 0.319092 9.29696C1.363 10.0213 2.57944 10.4045 3.82131 10.4002C8.0223 10.4002 10.3192 6.65286 10.3192 3.40459C10.3192 3.29586 10.3157 3.19102 10.3108 3.0868C10.7611 2.73978 11.1489 2.30724 11.4551 1.81041Z" fill="#3CB265"/>
</svg>
