<svg width="15" height="13" viewBox="0 0 15 13" fill="none" xmlns="http://www.w3.org/2000/svg">
<path d="M0.901575 5.43603C0.962951 5.42597 1.02506 5.42132 1.08721 5.42214H11.6694L11.4387 5.31368C11.2131 5.2058 11.0079 5.05897 10.8323 4.87985L7.86477 1.88098C7.47394 1.50395 7.40828 0.897436 7.70915 0.443911C8.05933 -0.039371 8.73088 -0.144304 9.20914 0.209574C9.24778 0.23818 9.2845 0.269362 9.31902 0.302916L14.6852 5.72582C15.1046 6.14915 15.105 6.83586 14.6861 7.25966C14.6858 7.25993 14.6855 7.26023 14.6852 7.2605L9.31902 12.6834C8.89931 13.1064 8.21978 13.1054 7.80122 12.6813C7.76828 12.6479 7.73753 12.6124 7.70915 12.5749C7.40828 12.1214 7.47394 11.5149 7.86477 11.1379L10.8269 8.13359C10.9844 7.97429 11.1654 7.84072 11.3635 7.73772L11.6855 7.5913H1.14627C0.598014 7.61187 0.117 7.22485 0.0140022 6.68025C-0.0808791 6.08899 0.31649 5.53195 0.901575 5.43603Z" fill="white"/>
</svg>
